<svg width="206" height="106" viewBox="0 0 206 106" fill="none" xmlns="http://www.w3.org/2000/svg">
<g clip-path="url(#clip0_36_289)">
<path d="M158.04 20.52C157.67 20.93 158.65 19.11 159.21 19.13C159.77 19.15 153.4 17.85 148.5 20.3C147.94 20.21 149.45 18.83 149.32 18.63C149.19 18.43 145.66 19.87 142.86 21.95C142.27 22.47 143.73 19.89 143.29 19.59C142.86 19.29 142.36 21.02 141.21 20.91C140.82 21.08 143.2 16.03 144.46 14.86C145 14.25 142.4 14.69 142.4 14.69C142.4 14.69 143.96 12.44 146.11 10.68" fill="#B9EEE9"/>
<path d="M138.58 8.58999C138.34 8.49999 137.87 8.67001 136.74 12.89C136.46 12.98 135.92 10.85 135.92 10.85C135.92 10.85 134.23 13.36 134.49 19.93C134.46 20.43 133.63 17.26 129.61 14.08C128.77 13.82 130.51 14.54 130.39 16.54C130.36 17.35 127.47 11.48 122.96 11.16C122.35 11.3 124.55 11.91 124.29 13.18C124.03 14.45 123.28 10.95 115.5 13.27C115.5 13.27 117.52 17.06 120.53 18.79C120.91 19.4 117.9 18.85 117.7 18.7C117.5 18.56 119.93 21.19 124.29 22.28C125.13 22.83 121.28 22.28 121.28 22.28C121.28 22.28 122.68 23.9 126.08 24.88C127.42 25.13 123.78 24.68 123.68 25.07C123.58 25.46 124.82 26.3 124.66 26.36C124.5 26.42 118.91 25.84 116.21 28.04C116.21 28.04 117.83 28.08 117.79 28.63C117.75 29.18 114.65 28.66 110.12 33.53C110.12 33.53 111.55 33.21 111.78 33.53C112.01 33.85 108.76 35.5 108.66 39.45C108.66 40.46 115.52 38.05 115.52 38.05C115.52 38.05 114.84 39.23 114.97 39.52C115.1 39.81 118.44 38.67 120.89 34.94C120.89 34.94 120.95 35.84 120.4 37.06C120.4 37.06 121.89 37.44 125.8 33.95C125.8 33.95 125.34 35.08 124.96 35.64C124.96 35.64 125.88 35.87 128.4 35.06C128.4 35.06 127.71 36.3 127.08 38.48L129.02 37.73C129.02 37.73 126.22 40.94 126.38 46.04C126.38 46.04 127.49 45.26 128.4 45.12C128.4 45.12 126.07 49.47 128.07 55.42C128.07 55.42 129.02 55.32 129.34 54.78C129.34 54.78 128.21 58.46 132.94 63.93C132.94 63.93 134.5 61.33 134.28 55.22C134.28 55.22 134.67 55 135.8 56.87C136.28 57.56 137.45 49.5 135.67 46.68C135.32 46.2 136.32 46.03 137.32 48.33C137.71 49.33 139.57 42.39 137.67 38.4C137.15 37.14 138.62 38.88 139.36 40.13C140.1 41.39 139.4 37.83 139.4 37.83C139.4 37.83 140.98 41.41 141.52 41.71C142.06 42.01 142.97 37.83 143.8 39.37C144.62 40.91 141.22 40.78 148.33 49.19C148.98 49.75 149.2 46.72 149.93 47.33C150.67 47.94 148.8 49.37 150.58 52.45C151.23 52.93 151.66 50.41 152.36 51.15C152.36 51.76 152.14 53.66 154.57 56.01C155.48 57.61 155.48 58.09 155.48 58.09C155.48 58.09 158.38 50.59 155.89 46.39C155.2 45.13 157.52 46.95 157.52 46.95C157.52 46.95 156.41 40.49 150.35 36.42C149.24 35.68 153.02 37.37 153.02 37.37C153.02 37.37 151.29 33.36 145.04 30.28C144.06 30 149.61 30.63 149.61 30.63C149.61 30.63 148.74 29.11 148.74 28.85C148.74 28.59 153.83 31.88 157.71 30.74C158.97 30.26 156.73 30.26 156.69 28.7C156.69 28.07 161.59 31.13 163.97 29.89C164.95 29.54 162.39 29.07 162.11 27.48C161.83 25.9 164.54 29 168.74 26.4C169.85 25.66 164.06 22.52 164.06 22.52" fill="#B9EEE9"/>
<path d="M138.28 34.48C138.28 34.48 148.34 54.55 132.3 101.02H139.32C139.32 101.02 150.85 72.53 141.75 34.48H138.28Z" fill="#B9EEE9"/>
<path d="M53.04 97.33C49.83 96.34 42.04 95.51 33.37 97.66C24.7 99.81 15.63 97.33 15.63 97.33C24.91 101.47 35.75 100.26 41.55 99.05C47.35 97.84 53.04 97.33 53.04 97.33Z" fill="#B9EEE9"/>
<path d="M89.27 94.71C93.42 94.68 98.88 96.09 99.91 96.36C100.04 96.39 100.18 96.32 100.22 96.18C100.24 96.11 100.22 96.03 100.19 95.96C98.81 93.96 98.28 94.05 90.26 92.75C82.05 91.42 81.47 93.95 81.1 95.42C80.73 96.89 80.23 96.73 72.94 95.78C65.65 94.83 62.37 96.03 60.88 96.69C59.39 97.35 55.82 98.76 52.51 99.26C49.2 99.76 41.05 101.37 41.05 101.37C50.68 102.93 57.32 100.64 61.71 99.27C66.1 97.9 73.81 98.03 79.86 99.6C85.91 101.17 84 94.75 89.27 94.71Z" fill="#B9EEE9"/>
<path d="M88.4 100.76C85.42 102.86 72.26 102.53 72.26 102.53C75.8 104.19 84.03 104.41 86.57 104.25C89.11 104.09 89.61 104.36 91.98 101.54C94.36 98.72 100.87 98.33 100.87 98.33C87.67 96.62 91.37 98.66 88.39 100.77L88.4 100.76Z" fill="#B9EEE9"/>
<path d="M115.42 100.43C109.25 102.25 109.96 97.29 105.94 97.14C105.84 97.14 105.77 97.21 105.76 97.31C105.76 97.35 105.76 97.38 105.79 97.42C106.17 97.93 106.98 99.04 107.51 99.82C108.23 100.87 108.94 103.08 114.03 102.47C119.12 101.86 118.07 100.99 130.17 100.99C130.17 100.99 122.29 98.4 115.42 100.43Z" fill="#B9EEE9"/>
<path d="M111.61 96.54C114.59 98.79 116.21 99.07 119.69 98.53C123.17 97.99 125.74 97.87 125.74 97.87C123.46 95.88 116.75 97.15 114.43 94.1C112.97 92.18 111.11 92.24 111.11 92.24C105.82 92.24 104.32 95.64 104.07 96.3C104.05 96.37 104.05 96.45 104.07 96.52C104.12 96.63 104.24 96.69 104.35 96.68L104.66 96.64C108.01 96.15 109.39 94.9 111.59 96.56L111.61 96.54Z" fill="#B9EEE9"/>
<path d="M56.88 70.69C56.87 70.6 56.78 70.54 56.69 70.56C56.65 70.56 56.61 70.59 56.58 70.63L55.86 71.67C55.79 71.78 55.74 71.91 55.74 72.04V72.6C55.74 72.6 56.76 71.52 56.86 71.14C56.9 70.99 56.9 70.84 56.87 70.7L56.88 70.69Z" fill="#B9EEE9"/>
<path d="M57.86 70.09L58.81 69.09C58.95 68.94 59.02 68.76 59.02 68.56V67.73C59.02 67.73 58.99 67.67 58.96 67.67C58.95 67.67 58.92 67.67 58.92 67.69L58.41 68.24C58.02 68.67 57.8 69.23 57.8 69.81V70.07C57.8 70.07 57.81 70.11 57.84 70.11C57.84 70.11 57.85 70.1 57.86 70.09Z" fill="#B9EEE9"/>
<path d="M60.86 66.69C61.29 66.27 61.53 65.7 61.53 65.09V64.44C61.53 64.44 61.49 64.37 61.46 64.37C61.44 64.37 61.42 64.37 61.41 64.4L60.31 65.9C60.07 66.23 60.01 66.65 60.16 67.03C60.17 67.07 60.2 67.12 60.23 67.16C60.46 67.03 60.67 66.88 60.86 66.69Z" fill="#B9EEE9"/>
<path d="M109.36 55.32H109.26C109.17 55.32 109.08 55.32 108.98 55.33C109.3 55.32 109.63 55.3 109.95 55.29C109.75 55.29 109.56 55.31 109.36 55.32ZM108.2 55.38C108.03 55.38 107.86 55.4 107.69 55.41C107.62 55.41 107.54 55.41 107.47 55.42C107.75 55.41 108.04 55.38 108.31 55.37C108.29 55.37 108.26 55.37 108.24 55.37H108.2V55.38ZM108.98 55.34C108.75 55.35 108.54 55.36 108.31 55.38C108.43 55.38 108.56 55.37 108.69 55.36C108.78 55.36 108.89 55.36 108.98 55.35V55.34ZM110.53 55.27C110.6 55.27 110.68 55.27 110.75 55.27C110.71 55.27 110.66 55.27 110.62 55.27H110.53ZM108.19 55.38C108.02 55.38 107.85 55.4 107.68 55.41C107.61 55.41 107.53 55.41 107.46 55.42C107.74 55.41 108.03 55.38 108.3 55.37C108.28 55.37 108.25 55.37 108.23 55.37H108.19V55.38ZM109.35 55.32H109.25C109.16 55.32 109.07 55.32 108.97 55.33C109.29 55.32 109.62 55.3 109.94 55.29C109.74 55.29 109.55 55.31 109.35 55.32ZM108.68 55.35C108.77 55.35 108.88 55.35 108.97 55.34C108.74 55.35 108.53 55.36 108.3 55.38C108.43 55.38 108.55 55.37 108.68 55.36V55.35ZM79.65 34.75C79.64 35.25 79.62 35.68 79.61 36.03C79.6 36.38 79.59 36.65 79.58 36.83C79.58 36.98 79.46 37.11 79.32 37.13C78.14 37.33 76.93 37.75 75.81 38.25C75.81 37.85 75.83 36.57 75.83 35.58C75.83 34.98 75.83 34.5 75.81 34.36C75.77 34.07 75.54 33.79 75.41 33.66C75.39 33.64 75.35 33.64 75.34 33.66C75.34 33.66 75.33 33.68 75.33 33.7L75.28 35.36H73.06C72.96 35.36 72.88 35.44 72.88 35.54C72.88 35.64 72.96 35.72 73.06 35.72H75.27L75.22 37.31H73.64C73.56 37.31 73.49 37.38 73.49 37.46C73.49 37.54 73.56 37.61 73.64 37.61H75.21L75.18 38.56C74.27 39 73.41 39.53 72.6 40.11C71.9 40.63 71.37 41.13 71.13 41.53C70.3 42.87 69.44 43.3 69.44 43.3C67.04 44.44 64.72 46.12 63 47.52C62.13 48.22 61.41 48.86 60.92 49.31C60.92 48.79 60.89 48 60.86 47.13C60.83 46.26 60.8 45.31 60.78 44.47H62.34C62.48 44.47 62.59 44.35 62.59 44.22C62.59 44.09 62.47 43.97 62.34 43.97H60.76C60.74 43.26 60.72 42.68 60.71 42.37C60.71 42.22 60.59 42.11 60.45 42.11C60.31 42.11 60.19 42.23 60.19 42.37C60.19 42.79 60.16 43.35 60.13 43.97H58.09C57.95 43.97 57.84 44.09 57.84 44.22C57.84 44.35 57.96 44.47 58.09 44.47H60.11C60.09 44.88 60.07 45.31 60.05 45.74H58.63C58.55 45.74 58.48 45.81 58.48 45.89C58.48 45.97 58.55 46.04 58.63 46.04H60.03C59.93 48.07 59.83 50.03 59.83 50.03H55.15V56.56C55.83 56.57 56.48 56.59 57.1 56.59C57.31 57 57.39 57.68 56.64 58.66C55.33 60.36 55.62 62.44 55.7 63.28C55.78 64.12 55.3 65.71 53.49 69.31C52 72.25 52.2 73.05 52.31 73.24C52.32 73.26 52.35 73.26 52.37 73.24C52.37 73.24 52.38 73.24 52.38 73.23C53 71.76 55.07 67.63 56.41 65.1C57.77 62.54 58.57 60.6 60.48 60.53C62.11 60.46 61.2 61.21 61.2 61.21C56.37 66.2 52.95 74.67 52.84 74.93C52.93 74.75 53.04 74.57 53.13 74.39C53.35 74.06 53.56 73.87 53.71 73.76C53.86 73.65 53.96 73.63 53.96 73.63C54.01 74.02 54.09 74.23 54.13 74.33C54.15 74.37 54.2 74.4 54.25 74.38C54.68 74.24 54.93 73.12 55 72.83C55.01 72.78 54.99 72.74 54.93 72.72C54.88 72.71 54.84 72.73 54.82 72.79C54.77 72.96 54.65 73.25 54.43 73.25C54.1 73.25 54.43 72.14 54.43 72.11C56.24 69.11 57.95 66.98 59.31 65.55C60.67 64.11 61.67 63.34 62.08 63.06C62.15 63.01 62.26 63.02 62.31 63.1C62.32 63.11 62.33 63.14 62.34 63.16C62.69 64.58 62.59 67.32 62.53 68.48C59.28 70.73 56.18 73.37 52.84 76.54C43.18 85.72 43.55 92.66 43.55 92.66C50.16 73.78 74.15 64.02 74.15 64.02C94.84 55.96 116.4 57.49 118.69 57.63C120.98 57.77 119.63 59.77 119.63 59.77C118.11 62.89 114.4 68.84 109.97 77.27C106.23 84.38 103.92 90.58 103.28 92.34C103.19 92.61 103.33 92.89 103.6 92.99C103.8 93.06 104.02 92.99 104.16 92.83C106.66 89.61 109.42 85.35 113.09 80.55C116.87 75.61 124.23 66.18 124.23 66.18C124.85 65.25 125.46 64.02 125.57 63.16C126.19 57.97 124.7 56.05 120.34 55.57C117.83 55.29 115.11 55.21 112.37 55.26C111.91 55.11 111.83 54.48 111.82 54.11C111.82 53.94 111.7 53.79 111.52 53.75C109.23 53.28 106.47 52.14 105.25 51.57C104.82 51.37 104.54 50.95 104.5 50.48L104.26 46.98C103.64 41.77 93.89 40.41 91.08 40.13C90.56 40.07 90.08 39.88 89.67 39.56C89.34 39.29 89.05 38.98 88.82 38.63C88.54 38.25 88.2 37.93 87.8 37.69C87.26 37.39 83.88 37.28 82.29 37.22C81.81 37.2 81.42 36.82 81.38 36.34C81.1 33.11 80.54 26.94 80.41 25.54C80.41 25.37 80.25 25.24 80.08 25.24C79.91 25.24 79.78 25.4 79.78 25.57C79.78 26.03 79.78 26.5 79.78 26.95C79.78 30.14 79.71 32.91 79.66 34.75M75.23 39.98C76.14 39.3 76.28 39.86 76.29 39.97C78.92 37.35 82.04 38.18 85.09 38.18C88.14 38.18 88.53 39.99 88.53 39.99C88.15 39.99 87.77 39.98 87.4 39.98C80.95 39.98 75.68 41.22 72.75 42.11C71.68 41.75 74.22 40.72 75.21 39.98H75.23ZM61.6 50.13C61.6 50.13 61.6 50.11 61.61 50.1C62.35 49.15 68.37 41.98 82.74 41.2C96.72 40.45 102.67 43.55 103.03 46.5L102.79 46.67C102.79 46.67 94.87 43.48 81.57 44.33C67.97 45.19 64.2 51.05 61.66 50.25C61.6 50.25 61.58 50.18 61.59 50.13H61.6ZM100.08 46.52V49.19C100.08 49.31 100 49.41 99.91 49.38L98.6 48.91C98.51 48.87 98.43 48.74 98.43 48.6V46.01C98.43 45.86 98.52 45.75 98.63 45.78L99.89 46.18C100 46.21 100.08 46.35 100.08 46.52ZM92.75 45.09V47.07C92.75 47.33 92.54 47.55 92.27 47.55H91.17C90.94 47.55 90.76 47.37 90.76 47.14V45.09C90.76 44.86 90.95 44.66 91.18 44.66H92.31C92.55 44.66 92.74 44.86 92.74 45.09H92.75ZM84.8 44.94V46.96C84.8 47.23 84.58 47.45 84.31 47.45H83.18C82.95 47.45 82.77 47.26 82.76 47.04V44.95C82.76 44.71 82.96 44.51 83.2 44.51H84.36C84.61 44.51 84.8 44.7 84.8 44.94ZM75.93 45.76V48.02C75.93 48.15 75.84 48.26 75.72 48.29L74.08 48.7C73.99 48.72 73.9 48.66 73.88 48.58C73.88 48.57 73.88 48.55 73.88 48.54V46.22C73.88 46.07 73.98 45.94 74.13 45.92L75.7 45.57C75.81 45.55 75.92 45.61 75.94 45.72C75.94 45.74 75.94 45.76 75.94 45.77L75.93 45.76ZM75.07 61.93C75.05 61.71 75 61.49 74.94 61.28C74.86 61 74.61 60.82 74.33 60.81C71.71 60.71 68.83 60.94 67.62 61.06C67.29 61.09 67.03 61.38 67.05 61.72C67.06 62.13 67.09 62.6 67.12 62.88C67.12 63.02 67.25 63.13 67.39 63.13C70.31 63.02 71.72 63.01 72.38 63.04C71.55 63.4 70.73 63.77 69.94 64.16C69.15 64.54 68.38 64.94 67.62 65.36C66.89 65.6 65.86 65.68 65.17 65.7C64.75 65.71 64.39 65.39 64.37 64.97V64.94C64.37 63.87 64.44 62.62 64.5 61.89C64.53 61.49 64.59 61.09 64.67 60.71C64.7 60.58 64.8 60.48 64.94 60.46C66.23 60.3 68.24 59.93 71.42 59.13C74.79 58.29 78.03 57.85 78.03 57.85C84.71 57.33 87.73 57.68 88.86 57.89C83.51 59.12 79.02 60.42 75.08 61.93H75.07ZM98.42 56.34C97.12 56.51 95.91 56.67 94.83 56.84C92.03 56.86 88.33 56.54 84.19 56.46C78.45 56.34 71.72 57.74 69.38 58.42C67.04 59.1 62.75 59.58 61.01 59.7C59.27 59.82 59.17 59.19 59.05 58.03C59.01 57.55 59.05 57.07 59.17 56.61C70.07 56.36 70.45 53.75 81.24 53.92C96.05 54.16 98.45 55.87 98.45 55.87C98.73 55.99 98.61 56.17 98.43 56.33L98.42 56.34ZM72.08 54.24V52.27C72.08 52.15 72.16 52.04 72.28 52.01L73.55 51.72C73.64 51.71 73.72 51.76 73.75 51.85V53.8C73.75 53.91 73.68 54 73.58 54.03L72.24 54.39C72.17 54.4 72.09 54.36 72.07 54.29C72.07 54.28 72.07 54.26 72.07 54.25L72.08 54.24ZM80.55 53.11V50.95C80.55 50.7 80.74 50.51 80.99 50.5H82.15C82.4 50.5 82.59 50.7 82.59 50.95V53.03C82.59 53.31 82.38 53.53 82.1 53.54H80.97C80.73 53.54 80.55 53.35 80.55 53.11ZM89.84 53.53V51C89.84 50.83 89.98 50.69 90.15 50.69H90.19L91.47 50.85C91.63 50.87 91.75 51 91.75 51.17V53.77C91.75 53.97 91.58 54.14 91.39 54.14C91.37 54.14 91.35 54.14 91.32 54.14L90.17 53.94C89.98 53.9 89.85 53.74 89.85 53.55L89.84 53.53ZM100.03 55.79L98.77 55.34C98.68 55.3 98.61 55.19 98.61 55.05V52.63C98.61 52.49 98.7 52.39 98.8 52.42L100 52.79C100.11 52.83 100.19 52.96 100.19 53.12V55.62C100.19 55.74 100.11 55.82 100.03 55.79ZM111.3 55.29C111.12 55.29 110.94 55.3 110.76 55.3C110.72 55.3 110.67 55.3 110.63 55.3C110.6 55.3 110.57 55.3 110.54 55.3C110.43 55.3 110.31 55.3 110.21 55.31C110.12 55.31 110.04 55.31 109.96 55.31C109.76 55.31 109.57 55.32 109.37 55.34H109.27C109.18 55.34 109.09 55.34 108.99 55.35C108.76 55.36 108.55 55.37 108.32 55.39C108.3 55.39 108.27 55.39 108.25 55.39H108.21C108.04 55.39 107.87 55.41 107.7 55.42C107.63 55.42 107.55 55.42 107.48 55.43C107.36 55.43 107.25 55.44 107.14 55.45H107.13C107.13 55.45 107.09 55.45 107.06 55.45C107 55.45 106.94 55.45 106.88 55.46C106.82 55.47 106.76 55.46 106.71 55.47C106.69 55.47 106.66 55.47 106.64 55.47C106.56 55.47 106.48 55.48 106.4 55.48C106.25 55.48 106.12 55.5 105.97 55.51C104.01 54.15 97.53 50.25 87.04 49.98C87.04 49.98 78.29 49.36 71.68 51.93C69.83 52.65 67.87 53.03 65.88 53.04L58.25 53.09C57.98 53.09 57.76 52.87 57.76 52.6V51.18H64.45C66.4 51.18 68.33 50.84 70.16 50.19C73.11 49.13 78.59 47.61 85.63 47.61C96.43 47.61 99.13 49.4 104.27 51.73C104.27 51.73 106.54 52.99 110.39 54.1C110.39 54.1 111.79 54.54 111.3 55.23V55.29ZM123.58 62.43C123.38 64.51 120.73 68.23 115.94 74.18C111.96 79.12 110.19 81.23 109.34 81.91C109.28 81.95 109.2 81.95 109.16 81.9C109.12 81.86 109.12 81.81 109.15 81.75C110.2 79.8 114.69 71.53 117.16 67.65C119.51 63.95 121.73 60.46 122.39 59.43C122.47 59.31 122.63 59.27 122.75 59.34C122.78 59.36 122.81 59.38 122.82 59.41C123.42 60.29 123.7 61.36 123.59 62.42L123.58 62.43ZM109.37 55.37H109.27C109.18 55.37 109.09 55.37 108.99 55.38C109.31 55.37 109.64 55.35 109.96 55.34C109.76 55.34 109.57 55.36 109.37 55.37ZM108.99 55.38C108.76 55.39 108.55 55.4 108.32 55.42C108.44 55.42 108.57 55.41 108.7 55.4C108.79 55.4 108.9 55.4 108.99 55.39V55.38ZM108.21 55.42C108.04 55.42 107.87 55.44 107.7 55.45C107.63 55.45 107.55 55.45 107.48 55.46C107.76 55.45 108.05 55.42 108.32 55.41C108.3 55.41 108.27 55.41 108.25 55.41H108.21V55.42ZM110.55 55.31C110.62 55.31 110.7 55.31 110.77 55.31C110.73 55.31 110.68 55.31 110.64 55.31H110.55Z" fill="#B9EEE9"/>
<path d="M66.56 77.25L66.49 70.51C66.49 70.31 66.28 70.1 66.09 70.17L65.55 70.39C64.93 70.64 64.5 71.29 64.43 71.95C64.2 74.08 64.78 76.65 64.78 76.65C54.36 83.52 52.66 85.89 52.66 85.89C59.33 81.5 62.45 80.12 63.43 79.74C63.75 79.61 64.11 79.67 64.37 79.9C64.66 80.17 64.64 80.5 64.55 80.76C64.47 80.98 64.32 81.16 64.11 81.27C53.68 86.74 49.47 90.22 49.47 90.22C57.17 85.77 63.68 84.48 63.65 84.72C63.62 84.96 62.05 86.15 62.05 86.15C66.46 84.82 69.36 86.54 69.36 86.54C66.26 78.89 66.55 77.25 66.55 77.25H66.56Z" fill="#B9EEE9"/>
<path d="M84.64 69.83C84.46 69.82 84.27 69.83 84.1 69.89L80.59 70.94C80.22 71.05 79.96 71.4 79.96 71.78V72.76C79.96 73.37 80.45 73.86 81.06 73.86C81.15 73.86 81.23 73.86 81.31 73.83L85.01 72.97C85.32 72.9 85.55 72.61 85.55 72.29V70.79C85.55 70.25 85.19 69.88 84.64 69.83ZM85.13 72.02C85.13 72.27 84.96 72.5 84.71 72.56L82.7 73.08C82.65 73.09 82.59 73.1 82.53 73.1C82.17 73.1 81.88 72.81 81.88 72.45V71.58C81.88 71.22 82.13 70.9 82.48 70.82L84.24 70.38C84.3 70.37 84.36 70.36 84.41 70.36C84.81 70.36 85.13 70.68 85.13 71.08V72V72.02Z" fill="#B9EEE9"/>
<path d="M92.85 67.7C92.64 67.69 92.43 67.7 92.23 67.77L88.22 68.92C87.8 69.04 87.51 69.41 87.5 69.85V70.93C87.5 71.71 88.26 72.29 89.05 72.11L93.28 71.16C93.64 71.09 93.89 70.78 93.9 70.41V68.76C93.9 68.15 93.49 67.75 92.87 67.69L92.85 67.7ZM93.33 70.15C93.33 70.44 93.13 70.69 92.85 70.76L90.54 71.35C90.48 71.36 90.42 71.37 90.36 71.37C89.95 71.37 89.61 71.05 89.61 70.64V69.66C89.61 69.25 89.89 68.9 90.29 68.81L92.31 68.32C92.37 68.31 92.43 68.3 92.5 68.3C92.96 68.3 93.33 68.66 93.33 69.11V70.15Z" fill="#B9EEE9"/>
<path d="M101.74 65.13C101.49 65.11 101.25 65.13 101.02 65.2L96.3999 66.54C95.9099 66.67 95.5799 67.11 95.5699 67.61V68.85C95.5699 69.75 96.4399 70.42 97.3499 70.21L102.22 69.11C102.63 69.02 102.92 68.67 102.93 68.25V66.35C102.93 65.65 102.45 65.2 101.73 65.12L101.74 65.13ZM102.23 67.98C102.23 68.31 102 68.59 101.69 68.67L99.0799 69.34C99.0099 69.35 98.9499 69.37 98.8799 69.37C98.4199 69.37 98.0399 69.01 98.0299 68.55V67.44C98.0299 66.98 98.3499 66.58 98.7999 66.47L101.08 65.92C101.15 65.9 101.23 65.89 101.3 65.89C101.82 65.89 102.24 66.29 102.24 66.8V67.98H102.23Z" fill="#B9EEE9"/>
<path d="M51.13 84.34C51.03 84 51.03 83.64 51.13 83.29C51.19 83.09 51.3 82.9 51.45 82.75C51.78 82.44 52.47 81.77 53.03 81.31C53.08 81.27 53.15 81.27 53.2 81.32C53.2 81.32 53.2 81.33 53.21 81.34C53.44 81.71 53.48 82.17 53.33 82.58C53.33 82.58 52.08 83.92 51.19 84.35C51.18 84.35 51.15 84.35 51.14 84.32L51.13 84.34Z" fill="#B9EEE9"/>
<path d="M57.7 79.45C57.7 79.45 55.59 81 54.5 81.77C54.46 81.81 54.39 81.79 54.36 81.75C54.36 81.74 54.35 81.72 54.34 81.7C54.28 81.07 54.35 78.73 57.21 77.28C57.34 77.21 57.51 77.27 57.57 77.4C57.58 77.44 57.6 77.47 57.6 77.51L57.7 79.46V79.45Z" fill="#B9EEE9"/>
<path d="M63.22 72.09L63.35 75.23L59.18 78.29C59.18 78.29 59.08 78.31 59.05 78.27C59.04 78.26 59.03 78.23 59.03 78.21V76.71C59.03 76.02 59.31 75.35 59.8 74.87C60.61 74.06 61.96 72.82 63.22 72.08V72.09Z" fill="#B9EEE9"/>
<path d="M73.6899 66.74C73.6899 66.74 97.9199 59.75 111.38 61.16C111.38 61.16 114.01 61.22 113.52 63.01C113.03 64.8 108.78 74.24 107.57 78.93C107.57 78.93 114.76 64.68 115.99 61.34C115.99 61.34 117.35 58.6 114.25 58.65C111.15 58.7 95.5199 57.78 73.6899 66.73V66.74Z" fill="#B9EEE9"/>
<path d="M203.07 103.03C203.07 47.78 158.28 3 103.04 3C47.8 3 3 47.79 3 103.03H203.07Z" stroke="#B9EEE9" stroke-width="5" stroke-miterlimit="10"/>
</g>
<defs>
<clipPath id="clip0_36_289">
<rect width="206" height="106" fill="white"/>
</clipPath>
</defs>
</svg>
