<svg width="368" height="50" viewBox="0 0 368 50" fill="none" xmlns="http://www.w3.org/2000/svg">
<g clip-path="url(#clip0_22_159)">
<path d="M99.9391 34.1785V16.2933H108.091C109.481 16.2933 110.673 16.5232 111.666 16.9831C112.658 17.443 113.417 18.1073 113.94 18.9761C114.464 19.8447 114.726 20.9004 114.726 22.1443C114.726 23.3882 114.455 24.4694 113.913 25.3892C113.372 26.2915 112.605 26.9908 111.611 27.4843C110.619 27.9778 109.445 28.2253 108.091 28.2253H102.783L102.81 34.1785H99.9391ZM102.81 25.8235H107.739C109.02 25.8235 110.014 25.525 110.718 24.9293C111.422 24.3161 111.774 23.4043 111.774 22.1954C111.774 20.9515 111.422 20.0572 110.718 19.5126C110.014 18.968 109.02 18.695 107.739 18.695H102.81V25.8235ZM113.932 34.1785L121.433 16.2933H124.846L132.402 34.1785H129.233L123.167 19.1038H123.086L116.911 34.1785H113.932ZM118.076 30.2182V27.8164H128.15V30.2182H118.076ZM135.061 34.1785V16.2933H143.321C144.693 16.2933 145.876 16.5057 146.869 16.932C147.862 17.3408 148.63 17.9365 149.171 18.7205C149.731 19.5045 150.01 20.466 150.01 21.6077C150.01 22.5101 149.839 23.3115 149.496 24.0094C149.153 24.7074 148.657 25.295 148.007 25.7724C147.374 26.2323 146.598 26.59 145.678 26.8455C144.757 27.0836 143.71 27.2032 142.536 27.2032H137.932V34.1785H135.061ZM147.736 34.1785L142.861 26.7689L145.596 26.2068L150.958 34.1785H147.736ZM137.932 24.827H143.131C144.377 24.827 145.343 24.5541 146.029 24.0094C146.733 23.4473 147.086 22.6472 147.086 21.6077C147.086 20.6193 146.733 19.8878 146.029 19.4104C145.343 18.933 144.35 18.695 143.05 18.695H137.932V24.827ZM151.963 34.1785L159.465 16.2933H162.877L170.433 34.1785H167.264L161.198 19.1038H161.117L154.942 34.1785H151.963ZM156.107 30.2182V27.8164H166.181V30.2182H156.107ZM173.092 34.1785V16.2933H179.998C181.984 16.2933 183.709 16.6429 185.171 17.3408C186.652 18.0387 187.798 19.0608 188.61 20.4069C189.423 21.7355 189.829 23.3532 189.829 25.2614C189.829 27.1011 189.414 28.6932 188.583 30.0393C187.771 31.3679 186.606 32.39 185.09 33.1053C183.591 33.8208 181.804 34.1785 179.727 34.1785H173.092ZM175.963 31.7768H179.89C181.389 31.7768 182.652 31.5212 183.681 31.0103C184.729 30.4818 185.523 29.7408 186.065 28.7874C186.606 27.8164 186.877 26.6411 186.877 25.2614C186.877 23.8131 186.606 22.6042 186.065 21.6333C185.541 20.6449 184.765 19.9133 183.736 19.436C182.706 18.9424 181.424 18.695 179.89 18.695H175.963V31.7768ZM193.695 34.1785V16.2933H196.566V34.1785H193.695ZM207.241 34.434C206.193 34.434 205.21 34.3654 204.289 34.2296C203.386 34.0937 202.574 33.9311 201.851 33.7441L200.254 33.3098L200.741 31.2402L202.583 31.5468C203.269 31.6826 204.036 31.7942 204.884 31.8789C205.751 31.9636 206.527 32.0067 207.213 32.0067C208.64 32.0067 209.714 31.7768 210.436 31.3169C211.177 30.8394 211.547 30.159 211.547 29.2728C211.547 28.8129 211.43 28.4216 211.195 28.0975C210.96 27.7734 210.509 27.4587 209.841 27.1521C209.173 26.8455 208.189 26.5134 206.889 26.1557C205.354 25.7294 204.135 25.3125 203.233 24.9037C202.33 24.4774 201.68 23.9758 201.282 23.3962C200.904 22.8005 200.714 22.034 200.714 21.0967C200.714 19.9039 201.03 18.9424 201.662 18.2095C202.312 17.4605 203.187 16.9145 204.289 16.5743C205.39 16.2166 206.609 16.0378 207.945 16.0378C208.757 16.0378 209.597 16.0969 210.463 16.2166C211.33 16.3363 212.188 16.5152 213.036 16.7532L214.092 17.0086L213.659 19.0527L212.251 18.8483C211.583 18.7461 210.888 18.6519 210.165 18.5672C209.443 18.4825 208.739 18.4395 208.053 18.4395C206.627 18.4395 205.535 18.6614 204.776 19.1038C204.018 19.5462 203.639 20.2025 203.639 21.0711C203.639 21.5136 203.756 21.8807 203.991 22.1698C204.244 22.4589 204.713 22.7239 205.399 22.9619C206.103 23.1999 207.123 23.5065 208.459 23.8817C209.958 24.2569 211.15 24.6737 212.034 25.1336C212.937 25.5936 213.578 26.1301 213.957 26.7433C214.354 27.3565 214.553 28.115 214.553 29.0173C214.553 30.2612 214.228 31.2832 213.578 32.0834C212.928 32.8835 212.053 33.4805 210.951 33.8719C209.85 34.247 208.613 34.434 207.241 34.434ZM218.291 34.1785V16.2933H232.238V18.695H221.161V23.8306H231.154V26.2323H221.161V31.7768H232.427V34.1785H218.291ZM249.103 34.3318L241.384 16.2933H244.58L250.728 30.9847H250.809L256.875 16.2933H259.99L252.244 34.3318H249.103ZM269.799 34.434C267.886 34.434 266.216 34.0507 264.789 33.2842C263.363 32.5002 262.253 31.419 261.458 30.0393C260.664 28.6421 260.266 27.0325 260.266 25.2103C260.266 23.4043 260.664 21.8121 261.458 20.4324C262.271 19.0527 263.399 17.9796 264.843 17.2131C266.289 16.4291 267.94 16.0378 269.799 16.0378C271.732 16.0378 273.411 16.4291 274.836 17.2131C276.282 17.9796 277.401 19.0608 278.194 20.4579C278.99 21.8377 279.386 23.4299 279.386 25.2359C279.386 27.0419 278.98 28.6421 278.167 30.0393C277.355 31.419 276.227 32.5002 274.782 33.2842C273.357 34.0507 271.695 34.434 269.799 34.434ZM269.799 31.9301C271.117 31.9301 272.273 31.6665 273.266 31.138C274.259 30.5934 275.036 29.8174 275.595 28.8129C276.155 27.8084 276.434 26.6075 276.434 25.2103C276.434 23.8306 276.155 22.6472 275.595 21.6588C275.053 20.6543 274.286 19.8878 273.293 19.3593C272.3 18.8147 271.136 18.5417 269.799 18.5417C268.518 18.5417 267.38 18.8147 266.387 19.3593C265.395 19.8878 264.618 20.6543 264.058 21.6588C263.499 22.6472 263.218 23.8386 263.218 25.2359C263.218 26.6156 263.489 27.8084 264.031 28.8129C264.591 29.8174 265.368 30.5934 266.36 31.138C267.353 31.6665 268.499 31.9301 269.799 31.9301ZM287.297 34.1785V27.7143L279.66 16.2933H283.235L288.732 25.057H288.841L294.311 16.2933H297.778L290.168 27.6887V34.1785H287.297ZM296.021 34.1785L303.523 16.2933H306.936L314.491 34.1785H311.323L305.256 19.1038H305.175L299 34.1785H296.021ZM300.165 30.2182V27.8164H310.24V30.2182H300.165ZM326.142 34.434C323.813 34.434 321.818 34.0682 320.158 33.3353C318.514 32.6024 317.25 31.5468 316.366 30.1671C315.499 28.7874 315.066 27.1346 315.066 25.2103C315.066 23.7109 315.337 22.3917 315.879 21.25C316.42 20.1083 317.168 19.1549 318.126 18.3884C319.101 17.6044 320.229 17.0167 321.512 16.6254C322.793 16.2341 324.156 16.0378 325.601 16.0378C326.449 16.0378 327.297 16.1144 328.147 16.2677C329.013 16.4035 329.853 16.6173 330.665 16.9065L331.532 17.2131L330.99 19.3337L329.988 19.1038C329.23 18.9169 328.489 18.7797 327.768 18.695C327.045 18.5928 326.349 18.5417 325.682 18.5417C324.22 18.5417 322.91 18.7891 321.755 19.2827C320.599 19.7761 319.687 20.5171 319.02 21.5055C318.351 22.4939 318.018 23.7365 318.018 25.2359C318.018 26.7003 318.333 27.9442 318.966 28.9662C319.616 29.9707 320.545 30.7372 321.755 31.2657C322.983 31.7768 324.454 32.0322 326.169 32.0322C326.765 32.0322 327.397 31.9892 328.065 31.9045C328.732 31.8198 329.392 31.692 330.042 31.5212V26.82H324.328V24.4183H332.913V32.901C332.263 33.1901 331.559 33.455 330.801 33.693C330.06 33.9311 329.293 34.1099 328.499 34.2296C327.704 34.3654 326.918 34.434 326.142 34.434ZM337.092 34.1785V16.2933H351.039V18.695H339.963V23.8306H349.956V26.2323H339.963V31.7768H351.229V34.1785H337.092ZM360.688 34.434C359.64 34.434 358.657 34.3654 357.736 34.2296C356.832 34.0937 356.02 33.9311 355.298 33.7441L353.701 33.3098L354.188 31.2402L356.03 31.5468C356.715 31.6826 357.482 31.7942 358.332 31.8789C359.198 31.9636 359.974 32.0067 360.661 32.0067C362.086 32.0067 363.161 31.7768 363.883 31.3169C364.623 30.8394 364.994 30.159 364.994 29.2728C364.994 28.8129 364.876 28.4216 364.642 28.0975C364.407 27.7734 363.955 27.4587 363.288 27.1521C362.619 26.8455 361.636 26.5134 360.336 26.1557C358.8 25.7294 357.582 25.3125 356.68 24.9037C355.776 24.4774 355.126 23.9758 354.73 23.3962C354.351 22.8005 354.161 22.034 354.161 21.0967C354.161 19.9039 354.476 18.9424 355.109 18.2095C355.759 17.4605 356.634 16.9145 357.736 16.5743C358.836 16.2166 360.055 16.0378 361.392 16.0378C362.204 16.0378 363.044 16.0969 363.91 16.2166C364.777 16.3363 365.634 16.5152 366.484 16.7532L367.54 17.0086L367.106 19.0527L365.698 18.8483C365.029 18.7461 364.334 18.6519 363.612 18.5672C362.89 18.4825 362.186 18.4395 361.5 18.4395C360.074 18.4395 358.982 18.6614 358.223 19.1038C357.465 19.5462 357.086 20.2025 357.086 21.0711C357.086 21.5136 357.203 21.8807 357.438 22.1698C357.69 22.4589 358.159 22.7239 358.846 22.9619C359.55 23.1999 360.569 23.5065 361.907 23.8817C363.405 24.2569 364.596 24.6737 365.481 25.1336C366.384 25.5936 367.025 26.1301 367.404 26.7433C367.801 27.3565 368 28.115 368 29.0173C368 30.2612 367.675 31.2832 367.025 32.0834C366.375 32.8835 365.498 33.4805 364.398 33.8719C363.296 34.247 362.059 34.434 360.688 34.434Z" fill="#B9EEE9"/>
<path d="M73.8055 9.67926C73.6327 9.87266 74.0904 9.01416 74.3519 9.0236C74.6134 9.03303 71.6386 8.41983 69.3503 9.57549C69.0888 9.53303 69.7939 8.88209 69.7332 8.78775C69.6725 8.69341 68.024 9.37266 66.7164 10.3538C66.4408 10.5991 67.1227 9.38209 66.9172 9.24058C66.7164 9.09907 66.4829 9.91511 65.9458 9.86322C65.7637 9.94341 66.8752 7.56133 67.4636 7.00945C67.7158 6.72171 66.5016 6.92926 66.5016 6.92926C66.5016 6.92926 67.2301 5.86794 68.2341 5.03775" fill="#B9EEE9"/>
<path d="M64.7175 4.05189C64.6055 4.00943 64.386 4.08963 63.8583 6.08019C63.7275 6.12264 63.4753 5.11793 63.4753 5.11793C63.4753 5.11793 62.6861 6.30189 62.8075 9.40095C62.7935 9.6368 62.4059 8.14151 60.5285 6.64151C60.1362 6.51887 60.9488 6.85849 60.8928 7.80189C60.8788 8.18397 59.5291 5.4151 57.4229 5.26415C57.138 5.33019 58.1655 5.61793 58.044 6.21698C57.9226 6.81604 57.5724 5.1651 53.9391 6.25944C53.9391 6.25944 54.8824 8.04717 56.2881 8.86321C56.4656 9.15095 55.0599 8.89151 54.9665 8.82076C54.8731 8.75472 56.0079 9.99529 58.044 10.5094C58.4363 10.7689 56.6384 10.5094 56.6384 10.5094C56.6384 10.5094 57.2922 11.2736 58.88 11.7359C59.5058 11.8538 57.8059 11.6415 57.7592 11.8255C57.7125 12.0094 58.2916 12.4057 58.2168 12.434C58.1421 12.4623 55.5316 12.1887 54.2706 13.2264C54.2706 13.2264 55.0272 13.2453 55.0085 13.5047C54.9898 13.7642 53.5421 13.5189 51.4266 15.816C51.4266 15.816 52.0944 15.6651 52.2018 15.816C52.3092 15.967 50.7915 16.7453 50.7448 18.6085C50.7448 19.0849 53.9484 17.9481 53.9484 17.9481C53.9484 17.9481 53.6308 18.5047 53.6916 18.6415C53.7523 18.7783 55.3121 18.2406 56.4562 16.4811C56.4562 16.4811 56.4842 16.9057 56.2274 17.4811C56.2274 17.4811 56.9232 17.6604 58.7492 16.0142C58.7492 16.0142 58.5344 16.5472 58.3569 16.8113C58.3569 16.8113 58.7866 16.9198 59.9634 16.5377C59.9634 16.5377 59.6412 17.1226 59.347 18.1509L60.253 17.7972C60.253 17.7972 58.9454 19.3113 59.0201 21.717C59.0201 21.717 59.5385 21.3491 59.9634 21.283C59.9634 21.283 58.8753 23.3349 59.8093 26.1415C59.8093 26.1415 60.253 26.0943 60.4024 25.8396C60.4024 25.8396 59.8747 27.5755 62.0836 30.1557C62.0836 30.1557 62.8122 28.9292 62.7094 26.0472C62.7094 26.0472 62.8916 25.9434 63.4193 26.8255C63.6434 27.1509 64.1898 23.3491 63.3586 22.0189C63.1951 21.7925 63.6621 21.7123 64.1291 22.7972C64.3113 23.2689 65.1799 19.9953 64.2926 18.1132C64.0497 17.5189 64.7362 18.3396 65.0818 18.9292C65.4274 19.5236 65.1005 17.8443 65.1005 17.8443C65.1005 17.8443 65.8384 19.533 66.0905 19.6745C66.3427 19.816 66.7677 17.8443 67.1553 18.5708C67.5383 19.2972 65.9504 19.2359 69.2708 23.2028C69.5744 23.467 69.6771 22.0377 70.018 22.3255C70.3636 22.6132 69.4903 23.2877 70.3216 24.7406C70.6252 24.967 70.826 23.7783 71.1529 24.1274C71.1529 24.4151 71.0501 25.3113 72.185 26.4198C72.6099 27.1745 72.6099 27.4009 72.6099 27.4009C72.6099 27.4009 73.9642 23.8632 72.8014 21.8821C72.4792 21.2877 73.5626 22.1462 73.5626 22.1462C73.5626 22.1462 73.0442 19.0991 70.2142 17.1792C69.6958 16.8302 71.4611 17.6274 71.4611 17.6274C71.4611 17.6274 70.6532 15.7359 67.7344 14.283C67.2767 14.1509 69.8686 14.4481 69.8686 14.4481C69.8686 14.4481 69.4623 13.7311 69.4623 13.6085C69.4623 13.4859 71.8394 15.0377 73.6514 14.5C74.2398 14.2736 73.1937 14.2736 73.175 13.5377C73.175 13.2406 75.4633 14.684 76.5748 14.0991C77.0325 13.934 75.8369 13.7123 75.7062 12.9623C75.5754 12.217 76.841 13.6792 78.8024 12.4528C79.3208 12.1038 76.6168 10.6226 76.6168 10.6226" fill="#B9EEE9"/>
<path d="M64.5775 16.2642C64.5775 16.2642 69.2756 25.7311 61.7848 47.6509H65.0632C65.0632 47.6509 70.4477 34.2123 66.198 16.2642H64.5775Z" fill="#B9EEE9"/>
<path d="M24.77 45.9104C23.2709 45.4434 19.6329 45.0519 15.584 46.066C11.5351 47.0802 7.29932 45.9104 7.29932 45.9104C11.6331 47.8632 16.6955 47.2925 19.4041 46.7217C22.1127 46.151 24.77 45.9104 24.77 45.9104Z" fill="#B9EEE9"/>
<path d="M41.6895 44.6745C43.6276 44.6604 46.1774 45.3255 46.6585 45.4528C46.7192 45.467 46.7845 45.434 46.8032 45.3679C46.8126 45.3349 46.8032 45.2972 46.7892 45.2642C46.1447 44.3208 45.8972 44.3632 42.1519 43.75C38.3177 43.1227 38.0469 44.3161 37.8741 45.0094C37.7013 45.7028 37.4678 45.6274 34.0633 45.1793C30.6589 44.7311 29.1271 45.2972 28.4312 45.6085C27.7354 45.9198 26.0682 46.5849 24.5224 46.8208C22.9766 47.0566 19.1705 47.8161 19.1705 47.8161C23.6678 48.5519 26.7687 47.4717 28.8189 46.8255C30.869 46.1793 34.4696 46.2406 37.295 46.9811C40.1204 47.7217 39.2284 44.6934 41.6895 44.6745Z" fill="#B9EEE9"/>
<path d="M41.2833 47.5283C39.8916 48.5189 33.7458 48.3632 33.7458 48.3632C35.399 49.1462 39.2424 49.25 40.4286 49.1745C41.6148 49.0991 41.8483 49.2264 42.9551 47.8962C44.0666 46.5661 47.1068 46.3821 47.1068 46.3821C40.9423 45.5755 42.6703 46.5377 41.2786 47.533L41.2833 47.5283Z" fill="#B9EEE9"/>
<path d="M53.9017 47.3726C51.0203 48.2311 51.3519 45.8915 49.4745 45.8207C49.4278 45.8207 49.3951 45.8538 49.3904 45.9009C49.3904 45.9198 49.3904 45.9339 49.4045 45.9528C49.5819 46.1934 49.9602 46.717 50.2077 47.0849C50.5439 47.5802 50.8755 48.6226 53.2526 48.3349C55.6296 48.0472 55.1393 47.6368 60.79 47.6368C60.79 47.6368 57.11 46.4151 53.9017 47.3726Z" fill="#B9EEE9"/>
<path d="M52.1225 45.5377C53.5141 46.5991 54.2707 46.7311 55.8959 46.4764C57.521 46.2217 58.7212 46.1651 58.7212 46.1651C57.6565 45.2264 54.5229 45.8255 53.4394 44.3868C52.7576 43.4811 51.889 43.5094 51.889 43.5094C49.4185 43.5094 48.718 45.1132 48.6012 45.4245C48.5919 45.4576 48.5919 45.4953 48.6012 45.5283C48.6246 45.5802 48.6806 45.6085 48.732 45.6038L48.8768 45.5849C50.4412 45.3538 51.0857 44.7642 52.1131 45.5472L52.1225 45.5377Z" fill="#B9EEE9"/>
<path d="M26.5633 33.3443C26.5586 33.3019 26.5166 33.2736 26.4745 33.283C26.4559 33.283 26.4372 33.2972 26.4232 33.316L26.0869 33.8066C26.0542 33.8585 26.0309 33.9198 26.0309 33.9811V34.2453C26.0309 34.2453 26.5072 33.7358 26.5539 33.5566C26.5726 33.4858 26.5726 33.4151 26.5586 33.349L26.5633 33.3443Z" fill="#B9EEE9"/>
<path d="M27.0209 33.0613L27.4646 32.5896C27.53 32.5189 27.5627 32.434 27.5627 32.3396V31.9481C27.5627 31.9481 27.5487 31.9198 27.5346 31.9198C27.53 31.9198 27.516 31.9198 27.516 31.9292L27.2778 32.1887C27.0957 32.3915 26.9929 32.6556 26.9929 32.9292V33.0519C26.9929 33.0519 26.9976 33.0707 27.0116 33.0707C27.0116 33.0707 27.0163 33.066 27.0209 33.0613Z" fill="#B9EEE9"/>
<path d="M28.4219 31.4576C28.6227 31.2594 28.7348 30.9906 28.7348 30.7028V30.3962C28.7348 30.3962 28.7161 30.3632 28.7021 30.3632C28.6928 30.3632 28.6834 30.3632 28.6788 30.3774L28.1651 31.0849C28.053 31.2406 28.025 31.4387 28.095 31.6179C28.0997 31.6368 28.1137 31.6604 28.1277 31.6793C28.2351 31.6179 28.3332 31.5472 28.4219 31.4576Z" fill="#B9EEE9"/>
<path d="M51.0717 26.0943H51.025C50.983 26.0943 50.9409 26.0944 50.8942 26.0991C51.0437 26.0944 51.1978 26.0849 51.3472 26.0802C51.2538 26.0802 51.1651 26.0896 51.0717 26.0943ZM50.53 26.1227C50.4506 26.1227 50.3712 26.1321 50.2918 26.1368C50.2591 26.1368 50.2217 26.1368 50.1891 26.1415C50.3198 26.1368 50.4552 26.1227 50.5813 26.1179C50.572 26.1179 50.558 26.1179 50.5486 26.1179H50.53V26.1227ZM50.8942 26.1038C50.7868 26.1085 50.6888 26.1132 50.5813 26.1227C50.6374 26.1227 50.6981 26.1179 50.7588 26.1132C50.8008 26.1132 50.8522 26.1132 50.8942 26.1085V26.1038ZM51.6181 26.0708C51.6508 26.0708 51.6881 26.0708 51.7208 26.0708C51.7022 26.0708 51.6788 26.0708 51.6601 26.0708H51.6181ZM50.5253 26.1227C50.4459 26.1227 50.3665 26.1321 50.2871 26.1368C50.2544 26.1368 50.2171 26.1368 50.1844 26.1415C50.3151 26.1368 50.4506 26.1227 50.5767 26.1179C50.5673 26.1179 50.5533 26.1179 50.544 26.1179H50.5253V26.1227ZM51.067 26.0943H51.0203C50.9783 26.0943 50.9363 26.0944 50.8896 26.0991C51.039 26.0944 51.1931 26.0849 51.3426 26.0802C51.2492 26.0802 51.1604 26.0896 51.067 26.0943ZM50.7541 26.1085C50.7962 26.1085 50.8475 26.1085 50.8896 26.1038C50.7822 26.1085 50.6841 26.1132 50.5767 26.1227C50.6374 26.1227 50.6934 26.1179 50.7541 26.1132V26.1085ZM37.197 16.3915C37.1923 16.6274 37.183 16.8302 37.1783 16.9953C37.1736 17.1604 37.169 17.2877 37.1643 17.3727C37.1643 17.4434 37.1082 17.5047 37.0429 17.5142C36.4918 17.6085 35.9267 17.8066 35.4037 18.0425C35.4037 17.8538 35.413 17.25 35.413 16.783C35.413 16.5 35.413 16.2736 35.4037 16.2076C35.385 16.0708 35.2776 15.9387 35.2169 15.8774C35.2075 15.8679 35.1889 15.8679 35.1842 15.8774C35.1842 15.8774 35.1795 15.8868 35.1795 15.8962L35.1562 16.6793H34.1194C34.0727 16.6793 34.0354 16.717 34.0354 16.7642C34.0354 16.8113 34.0727 16.8491 34.1194 16.8491H35.1515L35.1281 17.5991H34.3903C34.3529 17.5991 34.3202 17.6321 34.3202 17.6698C34.3202 17.7076 34.3529 17.7406 34.3903 17.7406H35.1235L35.1095 18.1887C34.6845 18.3962 34.2829 18.6462 33.9046 18.9198C33.5777 19.1651 33.3302 19.401 33.2181 19.5896C32.8305 20.2217 32.4289 20.4245 32.4289 20.4245C31.308 20.9623 30.2246 21.7547 29.4213 22.4151C29.015 22.7453 28.6788 23.0472 28.45 23.2594C28.45 23.0142 28.436 22.6415 28.422 22.2311C28.4079 21.8208 28.3939 21.3727 28.3846 20.9764H29.1131C29.1785 20.9764 29.2299 20.9198 29.2299 20.8585C29.2299 20.7972 29.1738 20.7406 29.1131 20.7406H28.3753C28.3659 20.4057 28.3566 20.1321 28.3519 19.9859C28.3519 19.9151 28.2959 19.8632 28.2305 19.8632C28.1651 19.8632 28.1091 19.9198 28.1091 19.9859C28.1091 20.184 28.095 20.4481 28.081 20.7406H27.1283C27.063 20.7406 27.0116 20.7972 27.0116 20.8585C27.0116 20.9198 27.0676 20.9764 27.1283 20.9764H28.0717C28.0624 21.1698 28.053 21.3727 28.0437 21.5755H27.3805C27.3432 21.5755 27.3105 21.6085 27.3105 21.6462C27.3105 21.684 27.3432 21.717 27.3805 21.717H28.0343C27.9876 22.6745 27.9409 23.5991 27.9409 23.5991H25.7554V26.6793C26.0729 26.684 26.3765 26.6934 26.666 26.6934C26.7641 26.8868 26.8014 27.2076 26.4512 27.6698C25.8394 28.4717 25.9748 29.4528 26.0122 29.8491C26.0496 30.2453 25.8254 30.9953 24.9801 32.6934C24.2843 34.0802 24.3777 34.4576 24.4291 34.5472C24.4337 34.5566 24.4477 34.5566 24.4571 34.5472C24.4571 34.5472 24.4617 34.5472 24.4617 34.5425C24.7513 33.8491 25.718 31.901 26.3438 30.7076C26.9789 29.5 27.3525 28.5849 28.2445 28.5519C29.0057 28.5189 28.5807 28.8727 28.5807 28.8727C26.3251 31.2264 24.7279 35.2217 24.6766 35.3444C24.7186 35.2594 24.77 35.1745 24.812 35.0896C24.9147 34.934 25.0128 34.8444 25.0829 34.7925C25.1529 34.7406 25.1996 34.7311 25.1996 34.7311C25.223 34.9151 25.2603 35.0142 25.279 35.0613C25.2883 35.0802 25.3117 35.0943 25.335 35.0849C25.5359 35.0189 25.6526 34.4906 25.6853 34.3538C25.69 34.3302 25.6806 34.3113 25.6526 34.3019C25.6293 34.2972 25.6106 34.3066 25.6012 34.3349C25.5779 34.4151 25.5219 34.5519 25.4191 34.5519C25.265 34.5519 25.4191 34.0283 25.4191 34.0142C26.2644 32.5991 27.063 31.5944 27.6981 30.9198C28.3332 30.2406 28.8002 29.8774 28.9917 29.7453C29.0244 29.7217 29.0758 29.7264 29.0991 29.7642C29.1038 29.7689 29.1084 29.783 29.1131 29.7925C29.2766 30.4623 29.2299 31.7547 29.2018 32.3019C27.6841 33.3632 26.2364 34.6085 24.6766 36.1038C20.1653 40.434 20.3381 43.7076 20.3381 43.7076C23.425 34.8019 34.6284 30.1981 34.6284 30.1981C44.2908 26.3962 54.3594 27.1179 55.4289 27.184C56.4983 27.25 55.8678 28.1934 55.8678 28.1934C55.158 29.6651 53.4254 32.4717 51.3566 36.4481C49.61 39.8019 48.5312 42.7264 48.2323 43.5566C48.1903 43.684 48.2557 43.816 48.3817 43.8632C48.4751 43.8962 48.5779 43.8632 48.6433 43.7877C49.8108 42.2689 51.0997 40.2594 52.8136 37.9953C54.5789 35.6651 58.0161 31.217 58.0161 31.217C58.3056 30.7783 58.5905 30.1981 58.6418 29.7925C58.9314 27.3443 58.2356 26.4387 56.1994 26.2123C55.0272 26.0802 53.757 26.0425 52.4774 26.066C52.2626 25.9953 52.2252 25.6981 52.2205 25.5236C52.2205 25.4434 52.1645 25.3727 52.0804 25.3538C51.011 25.1321 49.7221 24.5943 49.1523 24.3255C48.9515 24.2311 48.8207 24.033 48.8021 23.8113L48.69 22.1604C48.4004 19.7028 43.8471 19.0613 42.5348 18.9293C42.292 18.901 42.0678 18.8113 41.8764 18.6604C41.7223 18.533 41.5868 18.3868 41.4794 18.2217C41.3487 18.0425 41.1899 17.8915 41.0031 17.7783C40.7509 17.6368 39.1724 17.5849 38.4299 17.5566C38.2057 17.5472 38.0236 17.3679 38.0049 17.1415C37.8741 15.6179 37.6126 12.7076 37.5519 12.0472C37.5519 11.967 37.4772 11.9057 37.3978 11.9057C37.3184 11.9057 37.2577 11.9811 37.2577 12.0613C37.2577 12.2783 37.2577 12.5 37.2577 12.7123C37.2577 14.217 37.225 15.5236 37.2016 16.3915M35.1328 18.8585C35.5578 18.5377 35.6232 18.8019 35.6278 18.8538C36.8561 17.6179 38.3131 18.0094 39.7375 18.0094C41.1618 18.0094 41.344 18.8632 41.344 18.8632C41.1665 18.8632 40.9891 18.8585 40.8163 18.8585C37.8041 18.8585 35.343 19.4434 33.9746 19.8632C33.4749 19.6934 34.6611 19.2076 35.1235 18.8585H35.1328ZM28.7675 23.6462C28.7675 23.6462 28.7675 23.6368 28.7722 23.6321C29.1178 23.184 31.9292 19.8019 38.64 19.434C45.1688 19.0802 47.9474 20.5425 48.1156 21.934L48.0035 22.0142C48.0035 22.0142 44.3048 20.5094 38.0936 20.9104C31.7424 21.316 29.9817 24.0802 28.7956 23.7028C28.7675 23.7028 28.7582 23.6698 28.7629 23.6462H28.7675ZM46.7379 21.9434V23.2028C46.7379 23.2594 46.7005 23.3066 46.6585 23.2925L46.0467 23.0708C46.0047 23.0519 45.9673 22.9906 45.9673 22.9245V21.7028C45.9673 21.6321 46.0094 21.5802 46.0607 21.5943L46.6492 21.783C46.7005 21.7972 46.7379 21.8632 46.7379 21.9434ZM43.3147 21.2689V22.2028C43.3147 22.3255 43.2167 22.4293 43.0906 22.4293H42.5769C42.4695 22.4293 42.3854 22.3443 42.3854 22.2359V21.2689C42.3854 21.1604 42.4741 21.066 42.5815 21.066H43.1093C43.2213 21.066 43.3101 21.1604 43.3101 21.2689H43.3147ZM39.6021 21.1981V22.151C39.6021 22.2783 39.4993 22.3821 39.3732 22.3821H38.8455C38.7381 22.3821 38.654 22.2925 38.6494 22.1887V21.2028C38.6494 21.0896 38.7428 20.9953 38.8548 20.9953H39.3966C39.5133 20.9953 39.6021 21.0849 39.6021 21.1981ZM35.4597 21.5849V22.651C35.4597 22.7123 35.4177 22.7642 35.3616 22.7783L34.5958 22.9717C34.5537 22.9811 34.5117 22.9528 34.5024 22.9151C34.5024 22.9104 34.5024 22.901 34.5024 22.8962V21.8019C34.5024 21.7311 34.5491 21.6698 34.6191 21.6604L35.3523 21.4953C35.4037 21.4859 35.455 21.5142 35.4644 21.566C35.4644 21.5755 35.4644 21.5849 35.4644 21.5896L35.4597 21.5849ZM35.0581 29.2123C35.0488 29.1085 35.0254 29.0047 34.9974 28.9057C34.96 28.7736 34.8433 28.6887 34.7125 28.684C33.489 28.6368 32.144 28.7453 31.5789 28.8019C31.4248 28.816 31.3034 28.9528 31.3127 29.1132C31.3174 29.3066 31.3314 29.5283 31.3454 29.6604C31.3454 29.7264 31.4061 29.7783 31.4715 29.7783C32.8351 29.7264 33.4936 29.7217 33.8018 29.7359C33.4142 29.9057 33.0313 30.0802 32.6624 30.2642C32.2934 30.4434 31.9338 30.6321 31.5789 30.8302C31.238 30.9434 30.757 30.9811 30.4347 30.9906C30.2386 30.9953 30.0705 30.8444 30.0611 30.6462V30.6321C30.0611 30.1274 30.0938 29.5377 30.1218 29.1934C30.1359 29.0047 30.1639 28.816 30.2012 28.6368C30.2153 28.5755 30.262 28.5283 30.3273 28.5189C30.9298 28.4434 31.8684 28.2689 33.3535 27.8915C34.9273 27.4953 36.4404 27.2877 36.4404 27.2877C39.56 27.0425 40.9704 27.2076 41.4981 27.3066C38.9996 27.8868 36.9028 28.5 35.0628 29.2123H35.0581ZM45.9627 26.5755C45.3556 26.6557 44.7905 26.7311 44.2861 26.8113C42.9785 26.8208 41.2506 26.6698 39.3172 26.6321C36.6366 26.5755 33.4936 27.2359 32.4008 27.5566C31.308 27.8774 29.3046 28.1038 28.492 28.1604C27.6794 28.217 27.6327 27.9198 27.5767 27.3727C27.558 27.1462 27.5767 26.9198 27.6327 26.7028C32.7231 26.5849 32.9005 25.3538 37.9395 25.434C44.8559 25.5472 45.9767 26.3538 45.9767 26.3538C46.1074 26.4104 46.0514 26.4953 45.9673 26.5708L45.9627 26.5755ZM33.6617 25.5849V24.6557C33.6617 24.5991 33.6991 24.5472 33.7551 24.533L34.3482 24.3962C34.3903 24.3915 34.4276 24.4151 34.4416 24.4576V25.3774C34.4416 25.4293 34.409 25.4717 34.3623 25.4859L33.7365 25.6557C33.7038 25.6604 33.6664 25.6415 33.6571 25.6085C33.6571 25.6038 33.6571 25.5943 33.6571 25.5896L33.6617 25.5849ZM37.6173 25.0519V24.033C37.6173 23.9151 37.706 23.8255 37.8228 23.8208H38.3645C38.4812 23.8208 38.57 23.9151 38.57 24.033V25.0142C38.57 25.1462 38.4719 25.25 38.3411 25.2547H37.8134C37.7013 25.2547 37.6173 25.1651 37.6173 25.0519ZM41.9558 25.25V24.0566C41.9558 23.9764 42.0211 23.9104 42.1005 23.9104H42.1192L42.717 23.9859C42.7917 23.9953 42.8477 24.0566 42.8477 24.1368V25.3632C42.8477 25.4576 42.7683 25.5377 42.6796 25.5377C42.6703 25.5377 42.6609 25.5377 42.6469 25.5377L42.1099 25.4434C42.0211 25.4245 41.9604 25.3491 41.9604 25.2594L41.9558 25.25ZM46.7145 26.316L46.1261 26.1038C46.0841 26.0849 46.0514 26.033 46.0514 25.967V24.8255C46.0514 24.7594 46.0934 24.7123 46.1401 24.7264L46.7005 24.901C46.7519 24.9198 46.7893 24.9811 46.7893 25.0566V26.2359C46.7893 26.2925 46.7519 26.3302 46.7145 26.316ZM51.9777 26.0802C51.8936 26.0802 51.8096 26.0849 51.7255 26.0849C51.7068 26.0849 51.6835 26.0849 51.6648 26.0849C51.6508 26.0849 51.6368 26.0849 51.6228 26.0849C51.5714 26.0849 51.5154 26.0849 51.4687 26.0896C51.4266 26.0896 51.3893 26.0896 51.3519 26.0896C51.2585 26.0896 51.1698 26.0943 51.0764 26.1038H51.0297C50.9876 26.1038 50.9456 26.1038 50.8989 26.1085C50.7915 26.1132 50.6934 26.1179 50.586 26.1274C50.5767 26.1274 50.5627 26.1274 50.5533 26.1274H50.5346C50.4552 26.1274 50.3759 26.1368 50.2965 26.1415C50.2638 26.1415 50.2264 26.1415 50.1937 26.1462C50.1377 26.1462 50.0863 26.151 50.0349 26.1557H50.0303C50.0303 26.1557 50.0116 26.1557 49.9976 26.1557C49.9696 26.1557 49.9415 26.1557 49.9135 26.1604C49.8855 26.1651 49.8575 26.1604 49.8341 26.1651C49.8248 26.1651 49.8108 26.1651 49.8014 26.1651C49.7641 26.1651 49.7267 26.1698 49.6894 26.1698C49.6193 26.1698 49.5586 26.1793 49.4885 26.184C48.5732 25.5425 45.547 23.7028 40.6481 23.5755C40.6481 23.5755 36.5618 23.283 33.4749 24.4953C32.611 24.8349 31.6957 25.0142 30.7663 25.0189L27.2031 25.0425C27.077 25.0425 26.9742 24.9387 26.9742 24.8113V24.1415H30.0985C31.0092 24.1415 31.9105 23.9811 32.7651 23.6745C34.1428 23.1745 36.7019 22.4576 39.9897 22.4576C45.0333 22.4576 46.2942 23.3019 48.6946 24.401C48.6946 24.401 49.7547 24.9953 51.5527 25.5189C51.5527 25.5189 52.2065 25.7264 51.9777 26.0519V26.0802ZM57.7125 29.4481C57.6191 30.4293 56.3815 32.184 54.1446 34.9906C52.2859 37.3208 51.4593 38.316 51.0624 38.6368C51.0343 38.6557 50.997 38.6557 50.9783 38.6321C50.9596 38.6132 50.9596 38.5896 50.9736 38.5613C51.464 37.6415 53.5608 33.7406 54.7143 31.9104C55.8118 30.1651 56.8485 28.5189 57.1568 28.033C57.1941 27.9764 57.2689 27.9576 57.3249 27.9906C57.3389 28 57.3529 28.0094 57.3576 28.0236C57.6378 28.4387 57.7685 28.9434 57.7172 29.4434L57.7125 29.4481ZM51.0764 26.1179H51.0297C50.9876 26.1179 50.9456 26.1179 50.8989 26.1227C51.0483 26.1179 51.2025 26.1085 51.3519 26.1038C51.2585 26.1038 51.1698 26.1132 51.0764 26.1179ZM50.8989 26.1227C50.7915 26.1274 50.6934 26.1321 50.586 26.1415C50.6421 26.1415 50.7028 26.1368 50.7635 26.1321C50.8055 26.1321 50.8569 26.1321 50.8989 26.1274V26.1227ZM50.5346 26.1415C50.4552 26.1415 50.3759 26.151 50.2965 26.1557C50.2638 26.1557 50.2264 26.1557 50.1937 26.1604C50.3245 26.1557 50.4599 26.1415 50.586 26.1368C50.5767 26.1368 50.5627 26.1368 50.5533 26.1368H50.5346V26.1415ZM51.6274 26.0896C51.6601 26.0896 51.6975 26.0896 51.7302 26.0896C51.7115 26.0896 51.6881 26.0896 51.6695 26.0896H51.6274Z" fill="#B9EEE9"/>
<path d="M31.0838 36.4387L31.0511 33.2594C31.0511 33.1651 30.9531 33.066 30.8643 33.099L30.6122 33.2028C30.3226 33.3207 30.1218 33.6273 30.0891 33.9387C29.9817 34.9434 30.2526 36.1557 30.2526 36.1557C25.3864 39.3962 24.5925 40.5141 24.5925 40.5141C27.7074 38.4434 29.1644 37.7924 29.6221 37.6132C29.7716 37.5519 29.9397 37.5802 30.0611 37.6887C30.1965 37.816 30.1872 37.9717 30.1452 38.0943C30.1078 38.1981 30.0377 38.283 29.9397 38.3349C25.0688 40.9151 23.1027 42.5566 23.1027 42.5566C26.6987 40.4575 29.7389 39.849 29.7249 39.9623C29.7108 40.0755 28.9776 40.6368 28.9776 40.6368C31.0371 40.0094 32.3915 40.8207 32.3915 40.8207C30.9437 37.2123 31.0792 36.4387 31.0792 36.4387H31.0838Z" fill="#B9EEE9"/>
<path d="M39.5273 32.9387C39.4433 32.9339 39.3545 32.9387 39.2751 32.967L37.6359 33.4623C37.4632 33.5141 37.3417 33.6792 37.3417 33.8585V34.3207C37.3417 34.6085 37.5706 34.8396 37.8554 34.8396C37.8975 34.8396 37.9348 34.8396 37.9722 34.8255L39.7001 34.4198C39.8449 34.3868 39.9523 34.25 39.9523 34.099V33.3915C39.9523 33.1368 39.7842 32.9623 39.5273 32.9387ZM39.7562 33.9717C39.7562 34.0896 39.6768 34.1981 39.56 34.2264L38.6213 34.4717C38.598 34.4764 38.57 34.4811 38.5419 34.4811C38.3738 34.4811 38.2384 34.3443 38.2384 34.1745V33.7641C38.2384 33.5943 38.3551 33.4434 38.5186 33.4056L39.3405 33.1981C39.3685 33.1934 39.3966 33.1887 39.4199 33.1887C39.6067 33.1887 39.7562 33.3396 39.7562 33.5283V33.9623V33.9717Z" fill="#B9EEE9"/>
<path d="M43.3614 31.934C43.2633 31.9293 43.1653 31.934 43.0719 31.967L41.1992 32.5094C41.003 32.5661 40.8676 32.7406 40.8629 32.9481V33.4576C40.8629 33.8255 41.2178 34.0991 41.5868 34.0142L43.5622 33.5661C43.7303 33.533 43.8471 33.3868 43.8517 33.2123V32.434C43.8517 32.1462 43.6603 31.9576 43.3707 31.9293L43.3614 31.934ZM43.5856 33.0896C43.5856 33.2264 43.4922 33.3444 43.3614 33.3774L42.2826 33.6557C42.2546 33.6604 42.2266 33.6651 42.1985 33.6651C42.0071 33.6651 41.8483 33.5142 41.8483 33.3208V32.8585C41.8483 32.6651 41.9791 32.5 42.1659 32.4576L43.1092 32.2264C43.1372 32.2217 43.1653 32.217 43.1979 32.217C43.4128 32.217 43.5856 32.3868 43.5856 32.5991V33.0896Z" fill="#B9EEE9"/>
<path d="M47.5131 30.7217C47.3964 30.7123 47.2843 30.7217 47.1769 30.7547L45.0193 31.3868C44.7904 31.4481 44.6363 31.6557 44.6317 31.8915V32.4764C44.6317 32.9009 45.0379 33.217 45.4629 33.1179L47.7373 32.5991C47.9288 32.5566 48.0642 32.3915 48.0689 32.1934V31.2972C48.0689 30.967 47.8447 30.7547 47.5085 30.717L47.5131 30.7217ZM47.742 32.066C47.742 32.2217 47.6345 32.3538 47.4898 32.3915L46.2708 32.7075C46.2382 32.7123 46.2101 32.7217 46.1774 32.7217C45.9626 32.7217 45.7852 32.5519 45.7805 32.3349V31.8113C45.7805 31.5943 45.9299 31.4057 46.1401 31.3538L47.2049 31.0943C47.2376 31.0849 47.2749 31.0802 47.3076 31.0802C47.5505 31.0802 47.7466 31.2689 47.7466 31.5094V32.066H47.742Z" fill="#B9EEE9"/>
<path d="M23.878 39.783C23.8313 39.6226 23.8313 39.4528 23.878 39.2877C23.906 39.1934 23.9574 39.1038 24.0274 39.033C24.1815 38.8868 24.5038 38.5707 24.7653 38.3538C24.7886 38.3349 24.8213 38.3349 24.8447 38.3585C24.8447 38.3585 24.8447 38.3632 24.8494 38.3679C24.9568 38.5424 24.9754 38.7594 24.9054 38.9528C24.9054 38.9528 24.3216 39.5849 23.906 39.7877C23.9013 39.7877 23.8873 39.7877 23.8827 39.7736L23.878 39.783Z" fill="#B9EEE9"/>
<path d="M26.9462 37.4764C26.9462 37.4764 25.9608 38.2075 25.4518 38.5707C25.4331 38.5896 25.4004 38.5802 25.3864 38.5613C25.3864 38.5566 25.3817 38.5472 25.377 38.5377C25.349 38.2406 25.3817 37.1368 26.7173 36.4528C26.778 36.4198 26.8574 36.4481 26.8855 36.5094C26.8901 36.5283 26.8995 36.5424 26.8995 36.5613L26.9462 37.4811V37.4764Z" fill="#B9EEE9"/>
<path d="M29.5241 34.0047L29.5848 35.4858L27.6374 36.9292C27.6374 36.9292 27.5907 36.9387 27.5767 36.9198C27.572 36.9151 27.5673 36.9009 27.5673 36.8915V36.184C27.5673 35.8585 27.6981 35.5425 27.9269 35.316C28.3052 34.934 28.9356 34.3491 29.5241 34V34.0047Z" fill="#B9EEE9"/>
<path d="M34.4136 31.4811C34.4136 31.4811 45.7291 28.184 52.015 28.8491C52.015 28.8491 53.2433 28.8774 53.0144 29.7217C52.7856 30.566 50.8008 35.0189 50.2358 37.2311C50.2358 37.2311 53.5935 30.5094 54.1679 28.934C54.1679 28.934 54.8031 27.6415 53.3553 27.6651C51.9076 27.6887 44.6083 27.2547 34.4136 31.4764V31.4811Z" fill="#B9EEE9"/>
<path d="M94.8347 48.5991C94.8347 22.5377 73.9176 1.4151 48.1202 1.4151C22.3228 1.4151 1.401 22.5425 1.401 48.5991H94.8347Z" stroke="#B9EEE9" stroke-width="2" stroke-miterlimit="10"/>
</g>
<defs>
<clipPath id="clip0_22_159">
<rect width="368" height="50" fill="white"/>
</clipPath>
</defs>
</svg>
